<svg width="100" height="80" viewBox="0 140 701 95"
    xmlns="http://www.w3.org/2000/svg">
    <g id="svgGroup" fill-rule="evenodd" fill="#ffffff">
        <path d="M 523.682 27.49 L 524.219 22.168 L 534.912 22.168 L 534.912 73.389 A 26.937 26.937 0 0 1 534.04 80.434 A 19.412 19.412 0 0 1 528.442 89.795 Q 522.01 95.766 511.112 95.801 A 40.071 40.071 0 0 1 510.986 95.801 Q 505.176 95.801 499.634 93.384 A 25.161 25.161 0 0 1 495.57 91.174 Q 493.17 89.548 491.54 87.491 A 15.683 15.683 0 0 1 491.211 87.061 L 496.826 79.932 Q 502.295 86.426 510.303 86.426 A 17.635 17.635 0 0 0 514.149 86.03 Q 516.826 85.432 518.799 83.929 A 10.756 10.756 0 0 0 519.629 83.228 Q 523.047 80.029 523.047 73.828 L 523.047 70.264 A 16.92 16.92 0 0 1 511.711 75.864 A 23.558 23.558 0 0 1 509.375 75.977 Q 500.098 75.977 494.214 68.604 A 24.868 24.868 0 0 1 489.894 60.132 Q 488.33 54.916 488.33 48.193 Q 488.33 35.889 494.116 28.54 A 18.351 18.351 0 0 1 507.424 21.279 A 23.418 23.418 0 0 1 509.473 21.191 A 20.802 20.802 0 0 1 515.823 22.114 A 16.481 16.481 0 0 1 523.682 27.49 Z M 434.619 22.168 L 445.801 22.168 L 446.143 28.271 A 18.764 18.764 0 0 1 459.77 21.254 A 24.301 24.301 0 0 1 461.523 21.191 A 20.551 20.551 0 0 1 468.567 22.3 Q 478.098 25.768 478.32 40.088 L 478.32 75 L 466.455 75 L 466.455 40.771 A 18.489 18.489 0 0 0 466.269 38.049 Q 465.819 35.034 464.282 33.325 A 6.501 6.501 0 0 0 461.693 31.611 Q 459.836 30.908 457.178 30.908 A 12.422 12.422 0 0 0 452.219 31.86 Q 449.323 33.106 447.348 35.985 A 15.784 15.784 0 0 0 446.484 37.402 L 446.484 75 L 434.619 75 L 434.619 22.168 Z M 657.52 22.168 L 668.701 22.168 L 669.043 28.271 A 18.764 18.764 0 0 1 682.671 21.254 A 24.301 24.301 0 0 1 684.424 21.191 A 20.551 20.551 0 0 1 691.467 22.3 Q 700.999 25.768 701.221 40.088 L 701.221 75 L 689.355 75 L 689.355 40.771 A 18.489 18.489 0 0 0 689.169 38.049 Q 688.719 35.034 687.183 33.325 A 6.501 6.501 0 0 0 684.593 31.611 Q 682.737 30.908 680.078 30.908 A 12.422 12.422 0 0 0 675.119 31.86 Q 672.224 33.106 670.249 35.985 A 15.784 15.784 0 0 0 669.385 37.402 L 669.385 75 L 657.52 75 L 657.52 22.168 Z M 95.068 75 L 94.775 69.824 A 16.997 16.997 0 0 1 84.599 75.568 A 25.396 25.396 0 0 1 79.932 75.977 Q 73.153 75.977 68.972 72.847 A 13.474 13.474 0 0 1 66.919 70.947 A 16.23 16.23 0 0 1 63.711 65.133 Q 62.926 62.7 62.65 59.749 A 36.027 36.027 0 0 1 62.5 56.396 L 62.5 22.168 L 74.365 22.168 L 74.365 56.25 A 17.703 17.703 0 0 0 74.723 59.984 Q 75.901 65.419 80.955 66.183 A 11.766 11.766 0 0 0 82.715 66.309 Q 91.357 66.309 94.385 60.107 L 94.385 22.168 L 106.25 22.168 L 106.25 75 L 95.068 75 Z M 411.523 75 L 411.23 69.824 A 16.997 16.997 0 0 1 401.054 75.568 A 25.396 25.396 0 0 1 396.387 75.977 Q 389.608 75.977 385.427 72.847 A 13.474 13.474 0 0 1 383.374 70.947 A 16.23 16.23 0 0 1 380.166 65.133 Q 379.381 62.7 379.105 59.749 A 36.027 36.027 0 0 1 378.955 56.396 L 378.955 22.168 L 390.82 22.168 L 390.82 56.25 A 17.703 17.703 0 0 0 391.178 59.984 Q 392.356 65.419 397.411 66.183 A 11.766 11.766 0 0 0 399.17 66.309 Q 407.813 66.309 410.84 60.107 L 410.84 22.168 L 422.705 22.168 L 422.705 75 L 411.523 75 Z M 199.756 48.389 L 199.756 49.121 Q 199.756 58.645 196.394 65.176 A 23.474 23.474 0 0 1 194.189 68.677 Q 188.623 75.977 179.248 75.977 A 21.435 21.435 0 0 1 172.987 75.105 A 16.842 16.842 0 0 1 165.332 70.264 L 165.332 95.313 L 153.467 95.313 L 153.467 22.168 L 164.404 22.168 L 164.893 27.539 Q 170.117 21.191 179.102 21.191 A 20.813 20.813 0 0 1 186.018 22.29 A 17.507 17.507 0 0 1 194.263 28.394 A 24.519 24.519 0 0 1 198.194 36.336 Q 199.219 39.769 199.571 43.887 A 52.846 52.846 0 0 1 199.756 48.389 Z M 233.301 49.951 L 233.301 48.486 A 35.138 35.138 0 0 1 234.162 40.557 A 28.761 28.761 0 0 1 236.353 34.351 A 24.03 24.03 0 0 1 241.566 27.23 A 22.547 22.547 0 0 1 244.922 24.658 A 22.655 22.655 0 0 1 257.227 21.191 A 27.141 27.141 0 0 1 264.066 22.005 A 18.839 18.839 0 0 1 273.901 28.076 Q 278.849 33.865 279.636 43.693 A 48.424 48.424 0 0 1 279.785 47.559 L 279.785 52.344 L 245.264 52.344 A 20.067 20.067 0 0 0 246.158 56.953 A 14.162 14.162 0 0 0 249.634 62.695 A 12.964 12.964 0 0 0 258.514 66.487 A 17.149 17.149 0 0 0 259.277 66.504 A 15.867 15.867 0 0 0 271.358 61.321 A 20.296 20.296 0 0 0 272.559 59.912 L 278.955 66.016 Q 275.781 70.752 270.483 73.364 Q 265.186 75.977 258.594 75.977 A 29.112 29.112 0 0 1 250.134 74.804 A 22.906 22.906 0 0 1 240.308 68.872 A 23.847 23.847 0 0 1 233.825 56.061 A 34.105 34.105 0 0 1 233.301 49.951 Z M 545.068 49.951 L 545.068 48.486 A 35.138 35.138 0 0 1 545.93 40.557 A 28.761 28.761 0 0 1 548.12 34.351 A 24.03 24.03 0 0 1 553.334 27.23 A 22.547 22.547 0 0 1 556.689 24.658 A 22.655 22.655 0 0 1 568.994 21.191 A 27.141 27.141 0 0 1 575.833 22.005 A 18.839 18.839 0 0 1 585.669 28.076 Q 590.616 33.865 591.404 43.693 A 48.424 48.424 0 0 1 591.553 47.559 L 591.553 52.344 L 557.031 52.344 A 20.067 20.067 0 0 0 557.925 56.953 A 14.162 14.162 0 0 0 561.401 62.695 A 12.964 12.964 0 0 0 570.282 66.487 A 17.149 17.149 0 0 0 571.045 66.504 A 15.867 15.867 0 0 0 583.126 61.321 A 20.296 20.296 0 0 0 584.326 59.912 L 590.723 66.016 Q 587.549 70.752 582.251 73.364 Q 576.953 75.977 570.361 75.977 A 29.112 29.112 0 0 1 561.902 74.804 A 22.906 22.906 0 0 1 552.075 68.872 A 23.847 23.847 0 0 1 545.592 56.061 A 34.105 34.105 0 0 1 545.068 49.951 Z M 27.051 48.584 L 12.354 48.584 L 12.354 75 L 0 75 L 0 3.906 L 27.197 3.906 A 37.052 37.052 0 0 1 35.047 4.69 Q 40.168 5.8 44.045 8.482 A 22.096 22.096 0 0 1 46.118 10.107 A 20.436 20.436 0 0 1 53.063 24.635 A 28.167 28.167 0 0 1 53.125 26.514 A 25.509 25.509 0 0 1 52.239 33.425 A 18.538 18.538 0 0 1 46.265 42.773 A 22.749 22.749 0 0 1 38.031 47.131 Q 34.729 48.13 30.777 48.442 A 47.349 47.349 0 0 1 27.051 48.584 Z M 335.498 75 L 315.039 75 L 315.039 3.906 L 336.035 3.906 A 36.122 36.122 0 0 1 345.449 5.091 A 30.453 30.453 0 0 1 352.759 8.105 A 28.632 28.632 0 0 1 364.062 20.02 A 35.521 35.521 0 0 1 367.714 31.979 A 45.041 45.041 0 0 1 368.066 37.695 L 368.066 41.26 A 42.994 42.994 0 0 1 367.091 50.618 A 33.779 33.779 0 0 1 364.038 59.033 A 28.288 28.288 0 0 1 352.563 70.85 Q 345.117 75 335.498 75 Z M 222.412 0 L 222.412 75 L 210.547 75 L 210.547 0 L 222.412 0 Z M 146.045 21.875 L 145.996 33.008 Q 143.652 32.617 141.162 32.617 A 16.323 16.323 0 0 0 137.003 33.11 A 9.921 9.921 0 0 0 130.176 38.867 L 130.176 75 L 118.311 75 L 118.311 22.168 L 129.639 22.168 L 129.932 28.076 Q 134.223 21.2 141.827 21.191 A 17.013 17.013 0 0 1 141.846 21.191 Q 143.776 21.191 145.198 21.586 A 7.481 7.481 0 0 1 146.045 21.875 Z M 598.535 48.682 L 598.535 48.096 A 33.799 33.799 0 0 1 599.508 39.848 A 28.661 28.661 0 0 1 601.611 34.106 A 23.459 23.459 0 0 1 606.502 27.381 A 21.699 21.699 0 0 1 610.254 24.536 A 23.484 23.484 0 0 1 620.18 21.329 A 29.207 29.207 0 0 1 623.047 21.191 A 27.079 27.079 0 0 1 631.07 22.328 A 21.726 21.726 0 0 1 640.405 28.076 A 24.918 24.918 0 0 1 646.748 39.979 A 35.053 35.053 0 0 1 647.607 46.338 L 647.656 49.121 A 34.842 34.842 0 0 1 646.809 56.953 A 28.508 28.508 0 0 1 644.653 63.086 Q 641.65 69.238 636.06 72.607 A 23.518 23.518 0 0 1 626.32 75.81 A 29.532 29.532 0 0 1 623.145 75.977 A 27.135 27.135 0 0 1 614.943 74.794 A 21.601 21.601 0 0 1 605.249 68.53 A 25.308 25.308 0 0 1 599.405 56.966 A 37.314 37.314 0 0 1 598.535 48.682 Z M 336.035 13.867 L 327.393 13.867 L 327.393 65.137 L 335.449 65.137 A 24.789 24.789 0 0 0 341.564 64.427 A 16.673 16.673 0 0 0 350.366 59.058 Q 354.595 54.114 355.45 45.666 A 44.193 44.193 0 0 0 355.664 41.602 L 355.664 37.646 A 42.657 42.657 0 0 0 355.173 30.948 Q 354.092 24.167 350.635 19.971 A 16.261 16.261 0 0 0 341.059 14.35 A 24.776 24.776 0 0 0 336.035 13.867 Z M 610.4 49.121 A 31.886 31.886 0 0 0 610.763 54.091 Q 611.179 56.725 612.074 58.856 A 14.884 14.884 0 0 0 613.77 61.89 A 10.725 10.725 0 0 0 621.508 66.413 A 14.306 14.306 0 0 0 623.145 66.504 A 12.307 12.307 0 0 0 627.431 65.789 Q 630.457 64.673 632.495 61.816 A 15.512 15.512 0 0 0 634.598 57.491 Q 635.258 55.424 635.567 52.902 A 39.589 39.589 0 0 0 635.84 48.096 A 30.182 30.182 0 0 0 635.438 43.01 Q 634.966 40.253 633.94 38.03 A 15.16 15.16 0 0 0 632.397 35.4 A 11.396 11.396 0 0 0 628.52 31.978 Q 626.304 30.812 623.522 30.721 A 14.525 14.525 0 0 0 623.047 30.713 Q 617.236 30.713 613.818 35.327 A 14.897 14.897 0 0 0 611.686 39.579 Q 610.4 43.491 610.4 49.121 Z M 165.332 36.914 L 165.332 60.352 A 11.606 11.606 0 0 0 168.551 64.278 Q 170.811 65.999 173.959 66.39 A 15.61 15.61 0 0 0 175.879 66.504 A 11.22 11.22 0 0 0 180.147 65.721 Q 182.697 64.683 184.504 62.267 A 13.096 13.096 0 0 0 184.741 61.938 A 14.719 14.719 0 0 0 186.627 58.049 Q 187.855 54.297 187.934 48.854 A 52.153 52.153 0 0 0 187.939 48.096 Q 187.939 42.402 186.307 38.403 A 15.474 15.474 0 0 0 184.79 35.547 A 10.019 10.019 0 0 0 177.546 31.021 A 13.348 13.348 0 0 0 175.781 30.908 A 13.693 13.693 0 0 0 171.46 31.551 Q 167.592 32.832 165.467 36.664 A 14.126 14.126 0 0 0 165.332 36.914 Z M 523.047 60.156 L 523.047 36.914 A 11.895 11.895 0 0 0 519.681 33.026 Q 517.355 31.338 514.176 30.996 A 15.633 15.633 0 0 0 512.5 30.908 A 11.793 11.793 0 0 0 508.246 31.645 Q 505.437 32.722 503.517 35.374 A 13.207 13.207 0 0 0 503.394 35.547 A 15.361 15.361 0 0 0 501.383 39.742 Q 500.146 43.644 500.146 49.219 Q 500.146 54.838 501.765 58.766 A 14.927 14.927 0 0 0 503.394 61.743 A 10.69 10.69 0 0 0 507.199 65.131 Q 509.476 66.309 512.402 66.309 A 13.109 13.109 0 0 0 517.128 65.497 Q 520.84 64.074 523.047 60.156 Z M 12.354 13.867 L 12.354 38.672 L 27.197 38.672 A 22.471 22.471 0 0 0 31.012 38.369 Q 34.872 37.703 37.256 35.571 A 10.007 10.007 0 0 0 40.294 30.39 Q 40.696 28.779 40.721 26.867 A 19.499 19.499 0 0 0 40.723 26.611 A 15.318 15.318 0 0 0 40.228 22.616 A 11.243 11.243 0 0 0 37.207 17.407 Q 33.774 14.046 27.826 13.874 A 22.037 22.037 0 0 0 27.539 13.867 L 12.354 13.867 Z M 245.459 43.652 L 268.066 43.652 L 268.066 42.773 Q 267.802 38.744 266.443 36.044 A 10.089 10.089 0 0 0 264.893 33.765 A 9.128 9.128 0 0 0 259.714 30.941 A 13.439 13.439 0 0 0 257.178 30.713 A 11.314 11.314 0 0 0 253.392 31.321 A 9.682 9.682 0 0 0 249.292 34.131 Q 246.289 37.549 245.459 43.652 Z M 557.227 43.652 L 579.834 43.652 L 579.834 42.773 Q 579.57 38.744 578.211 36.044 A 10.089 10.089 0 0 0 576.66 33.765 A 9.128 9.128 0 0 0 571.482 30.941 A 13.439 13.439 0 0 0 568.945 30.713 A 11.314 11.314 0 0 0 565.16 31.321 A 9.682 9.682 0 0 0 561.06 34.131 Q 558.057 37.549 557.227 43.652 Z" vector-effect="non-scaling-stroke"/>
    </g>
</svg>